<svg xmlns="http://www.w3.org/2000/svg"
shape-rendering="geometricPrecision"
width="4000" height="4000" viewBox="0 0 1024 1024">
  <metadata>null</metadata>

<path d="
M 349.993 573.625
C 350.846 568.927 350.405 563.779 350.918 558.996
C 352.341 545.728 354.748 531.902 359.07 519.253
C 360.002 519.947 359.684 524.087 359.779 525.22
C 360.272 531.109 360.972 537.09 362.256 542.864
C 365.819 558.876 372.833 574.241 384.308 586.166
C 398.093 600.493 416.813 610.092 436.081 614.667
C 441.811 616.028 447.567 616.645 453.372 617.501
C 466.654 619.46 481.577 618.641 494.292 614.135
C 508.344 609.155 520.852 600.356 531.611 590.186
C 536.953 585.137 542.215 580.11 546.965 574.479
C 548.506 572.653 550.876 570.607 551.762 568.344
C 552.196 567.235 551.208 566.282 550.765 565.326
C 550.199 564.107 549.936 562.685 549.758 561.36
C 549.451 559.068 549.364 556.493 549.901 554.233
C 550.225 552.866 551.063 551.456 551.23 550.112
C 547.024 550.487 543.299 551.737 538.989 551.244
C 537.183 551.037 535.382 550.704 533.665 550.091
C 532.592 549.709 531.497 549 530.348 549.202
C 529.247 550.068 528.547 551.356 527.738 552.479
C 525.916 555.005 524.046 557.588 522.033 559.964
C 516.379 566.638 509.767 572.954 502.613 578.012
C 496.009 582.681 488.739 586.755 480.999 589.179
C 453.589 597.762 423.033 588.689 401.826 570.163
C 385.719 556.092 374.786 536.891 370.168 516.071
C 368.853 510.14 366.971 503.068 367.625 496.955
C 367.842 494.929 369.617 492.188 370.545 490.349
C 372.664 486.145 374.762 481.933 376.848 477.712
C 377.522 476.348 378.301 473.851 379.865 473.343
C 380.274 473.363 380.062 474.437 380.036 474.731
C 379.916 476.097 379.904 477.469 379.86 478.84
C 379.747 482.346 380.014 485.802 380.224 489.291
C 380.862 499.892 382.821 510.258 385.927 520.406
C 394.256 547.624 417.34 572.03 446.072 577.147
C 456.222 578.955 466.856 579.209 476.791 575.98
C 488.683 572.115 498.769 564.249 507.446 555.462
C 510.211 552.662 512.673 549.664 515.214 546.667
C 516.699 544.917 518.745 542.855 519.773 540.806
C 520.313 539.731 518.763 538.199 518.228 537.3
C 516.734 534.79 515.916 531.837 515.506 528.963
C 513.937 517.969 517.773 506.684 527.346 500.358
C 542.279 490.49 563.507 497.635 568.981 514.925
C 570.887 520.944 570.791 527.832 568.564 533.761
C 567.797 535.803 566.637 537.577 565.677 539.52
C 571.09 539.751 575.918 539.494 580.44 543.186
C 590.255 551.198 589.846 567.763 578.737 574.594
C 573.829 577.612 568.879 577.627 563.431 576.529
C 560.333 579.114 557.915 582.888 555.312 585.964
C 551.769 590.15 547.913 594.032 543.95 597.819
C 524.795 616.123 501.766 629.708 474.973 632.07
C 466.16 632.847 456.962 632.338 448.236 630.963
C 445.382 630.513 442.485 630.131 439.656 629.548
C 437.534 629.111 435.451 628.376 433.282 628.275
C 432.301 628.739 433.381 629.638 433.95 630.317
C 435.543 632.218 437.014 634.126 438.32 636.241
C 440.048 639.038 441.033 642.104 441.967 645.232
C 442.357 646.54 442.312 648.679 443.208 649.69
C 447.589 650.656 451.8 652.327 456.164 653.396
C 461.576 654.721 466.98 655.617 472.53 656.098
C 494.379 657.989 515.062 649.949 533.38 638.682
C 538.011 635.833 542.485 632.767 546.847 629.527
C 549.057 627.885 552.121 626.115 553.745 623.885
C 553.713 622.307 552.332 620.479 551.995 618.863
C 550.935 613.785 550.739 608.251 552.322 603.267
C 553.832 598.512 556.686 594.251 560.421 590.974
C 563.74 588.061 567.762 586.086 572.021 584.954
C 575.219 584.104 578.723 584.072 582.003 584.377
C 585.42 584.695 588.616 585.61 591.644 587.228
C 605.429 594.599 611.297 613.188 602.279 626.559
C 599.939 630.029 596.879 633.096 593.311 635.301
C 590.201 637.223 586.521 638.768 582.872 639.251
C 578.389 639.844 573.057 639.241 568.837 637.61
C 566.813 636.827 565.012 635.162 562.92 634.641
C 560.618 635.149 558.602 637.541 556.752 638.911
C 552.728 641.893 548.848 645.046 544.697 647.869
C 532.98 655.837 519.655 662.621 505.984 666.456
C 491.908 670.404 477.542 671.225 463.084 669.069
C 458.324 668.36 453.538 667.246 448.885 666.028
C 446.712 665.459 443.684 664.11 441.45 664.346
C 440.339 668.358 438.632 672.29 436.284 675.736
C 435.444 676.969 433.043 678.807 433.139 680.365
C 437.535 683.099 441.679 686.17 446.218 688.709
C 456.051 694.21 466.596 698.557 477.405 701.688
C 482.299 703.105 488.273 705.379 493.411 705.277
C 494.387 704.523 494.756 702.989 495.452 701.996
C 496.457 700.563 497.699 699.178 498.915 697.925
C 505.102 691.543 514.643 688.146 523.487 689.265
C 540.773 691.453 551.63 709.547 546.564 725.889
C 544.325 733.109 538.93 738.649 532.705 742.636
C 527.028 746.272 518.807 745.965 512.364 745.457
C 509.112 745.201 505.833 745.28 502.58 744.975
C 490.993 743.89 479.622 741.775 468.414 738.682
C 404.536 721.052 357.16 662.696 351.138 597.034
C 350.426 589.274 349.503 581.433 349.993 573.625 Z
M 359.903 580.829
C 359.804 580.786 359.704 580.744 359.605 580.701
C 362.107 593.374 366.489 606.1 372.959 617.34
C 375.127 621.106 377.19 625.719 380.499 628.634
C 381.798 628.011 382.714 626.555 383.83 625.648
C 385.547 624.253 388.145 622.952 390.113 621.897
C 389.673 620.471 387.658 619.039 386.625 617.981
C 384.101 615.394 381.588 612.793 379.338 609.958
C 375.427 605.028 371.55 600.113 368.162 594.799
C 365.264 590.255 363.013 585.224 359.903 580.829 Z
M 383.936 652.099
C 383.582 656.302 384.121 661.045 385.984 664.872
C 390.919 675.012 403.61 680.272 414.23 676.22
C 419.543 674.192 424.009 669.877 426.485 664.798
C 427.678 662.35 428.465 659.687 428.678 656.967
C 429.512 646.296 423.943 636.046 413.357 632.65
C 400.143 628.411 385.103 638.265 383.936 652.099 Z
M 408.502 691.845
C 426.572 709.049 448.22 722.575 472.655 728.579
C 478.099 729.916 483.631 731.101 489.186 731.865
C 490.631 732.064 492.076 732.163 493.522 732.336
C 493.944 732.386 494.619 732.72 495 732.466
C 494.263 730.12 492.629 728.132 491.962 725.715
C 491.353 723.509 491.704 721.149 490.952 719
C 488.727 717.815 485.133 718.03 482.644 717.466
C 476.917 716.168 471.417 714.498 465.862 712.603
C 449.871 707.145 435.207 698.757 421.635 688.794
C 419.864 688.744 418.014 689.501 416.317 689.97
C 413.735 690.684 411.06 691.072 408.502 691.845 Z
M 504.948 715.6
C 504.077 726.443 513.328 734.546 523.893 732.081
C 525.551 731.695 526.978 730.71 528.348 729.743
C 530.08 728.522 531.431 726.938 532.528 725.137
C 533.973 722.761 534.412 720.184 534.577 717.452
C 534.683 715.711 534.322 713.921 533.747 712.287
C 528.773 698.143 506.179 700.281 504.948 715.6 Z
M 528.408 519.572
C 527.927 521.448 528.028 523.542 528.201 525.456
C 528.371 527.34 528.958 529.062 529.821 530.736
C 535.696 542.132 553.044 540.141 556.277 527.751
C 557.954 521.322 555.59 514.247 549.65 510.891
C 541.589 506.337 530.749 510.442 528.408 519.572 Z
M 559.898 556.585
C 559.68 557.746 559.89 558.949 560.166 560.079
C 562.468 569.515 576.185 569.039 577.922 559.507
C 579.957 548.332 561.976 545.49 559.898 556.585 Z
M 564.39 610.095
C 562.957 622.736 578.116 631.148 588.056 623.211
C 589.495 622.062 590.65 620.627 591.528 619.013
C 592.464 617.293 593.061 615.375 593.251 613.424
C 593.47 611.186 593.308 608.802 592.513 606.683
C 588.143 595.039 571.518 594.238 565.993 605.264
C 565.236 606.775 564.583 608.398 564.39 610.095 Z"
opacity="1" fill="rgb(170,174,245)" fill-rule="evenodd" />
<path d="
M 407.414 477.584
C 408.366 474.303 409.449 471.196 411.504 468.404
C 416.771 461.247 425.625 457.811 434.363 459.213
C 437.133 459.657 439.894 460.62 442.383 461.906
C 443.479 462.472 444.725 463.806 445.914 464.036
C 447.038 463.033 447.726 461.173 448.311 459.81
C 450.475 454.757 450.627 448.655 449.108 443.412
C 446.055 432.876 437.827 423.597 430.228 415.979
C 426.698 412.439 423.157 408.831 418.899 406.2
C 420.549 403.471 422.669 401.084 424.529 398.502
C 425.374 397.33 425.916 395.781 427.042 394.856
C 428.723 395.157 430.246 397.135 431.448 398.24
C 434.437 400.986 437.481 403.574 440.31 406.502
C 452.477 419.099 465.983 435.189 464.039 453.965
C 463.453 459.618 461.726 464.702 458.729 469.549
C 457.784 471.078 456.841 472.62 455.783 474.074
C 455.15 474.945 454.065 475.945 453.762 476.991
C 453.129 479.172 454.238 482.138 454.005 484.457
C 453.366 490.795 450.099 496.84 445.127 500.825
C 434.514 509.331 418.219 506.543 410.723 495.326
C 407.339 490.263 406.368 483.526 407.414 477.584 Z
M 418.9 481.097
C 418.359 485.947 420.798 490.895 425.317 492.987
C 432.187 496.167 440.812 492.285 441.838 484.589
C 442.205 481.836 442.058 478.683 440.471 476.3
C 434.644 467.549 420.089 470.431 418.9 481.097 Z"
opacity="1" fill="rgb(146,194,240)" fill-rule="evenodd" />
<path d="
M 439.453 521.594
C 440.825 516.749 442.577 512.528 446.115 508.808
C 454.911 499.558 470.678 497.532 480.625 506.229
C 481.105 506.263 482.39 504.204 482.708 503.792
C 484.769 501.124 486.797 498.517 488.515 495.609
C 495.789 483.295 498.321 470.118 497.651 455.976
C 496.906 440.243 487.054 426.87 480.057 413.357
C 472.131 398.05 466.755 382.693 464.015 365.678
C 463.168 360.42 462.396 355.117 462.237 349.787
C 462.183 347.974 461.828 345.704 462.241 343.934
C 462.701 341.964 465.336 339.768 466.566 338.193
C 469.739 334.129 473.223 330.032 475.999 325.706
C 476.142 325.63 476.299 325.379 476.427 325.478
C 476.673 325.665 476.547 326.664 476.501 326.944
C 476.29 328.234 476.244 329.414 476.207 330.725
C 476.105 334.27 476.058 337.757 476.083 341.299
C 476.159 352.047 476.947 362.832 479.716 373.264
C 482.761 384.739 486.902 395.374 492.387 405.903
C 499.023 418.643 507.069 431.071 510.56 445.165
C 512.697 453.792 512.511 462.792 511.664 471.568
C 510.585 482.727 506.134 493.804 500.227 503.246
C 497.994 506.815 495.484 510.332 492.889 513.646
C 491.99 514.795 489.929 516.51 489.763 517.963
C 491.009 523.715 492.027 529.396 490.137 535.183
C 484.079 553.73 460.058 559.593 446.358 545.616
C 444.146 543.359 442.375 540.719 441.133 537.813
C 439.034 532.901 438.559 526.838 439.453 521.594 Z
M 451.935 525.6
C 451.395 531.774 454.937 538.272 461.022 540.247
C 468.725 542.746 478 537.266 478.633 528.932
C 478.871 525.804 478.668 522.759 476.954 520.043
C 470.315 509.52 453.058 512.772 451.935 525.6 Z"
opacity="1" fill="rgb(141,200,240)" fill-rule="evenodd" />
<path d="
M 497.956 323.626
C 498.313 321.667 498.144 319.6 498.325 317.617
C 498.706 313.425 499.242 309.228 499.889 305.068
C 501.636 293.831 504.572 282.902 508.372 272.189
C 509.754 268.294 511.385 264.522 512.85 260.664
C 513.336 259.384 513.89 257.402 515.442 257.125
C 518.27 262.605 520.498 268.399 523.442 273.848
C 536.344 297.724 550.616 320.743 565.511 343.416
C 589.542 379.997 616.02 414.859 637.904 452.83
C 655.3 483.016 670.816 515.512 676.042 550.255
C 677.65 560.951 678.715 571.651 678.066 582.486
C 677.378 593.991 676.651 605.559 673.957 616.828
C 668.541 639.487 659.584 661.422 645.656 680.24
C 633.297 696.938 616.947 710.542 599.25 721.187
C 583.977 730.375 566.359 737.802 548.789 741.157
C 544.651 741.947 540.576 742.995 536.431 743.736
C 535.67 743.872 533.135 744.852 532.804 743.876
C 538.318 740.461 544.319 737.949 549.815 734.395
C 565.093 724.515 579.093 710.942 587.938 694.924
C 596.686 679.079 605.072 662.355 610.159 644.915
C 621.036 607.63 619.86 564.574 603.419 529.114
C 596.974 515.211 586.796 503.338 578.052 490.862
C 563.814 470.546 549.254 450.44 535.439 429.83
C 514.088 397.975 495.748 363.153 497.956 323.626 Z"
opacity="1" fill="rgb(102,204,215)" fill-rule="evenodd" />
<path d="
M 535.436 671.11
C 535.743 668.026 536.67 665.105 538.157 662.388
C 547.216 645.839 573.825 647.817 579.902 665.975
C 580.92 669.016 581.242 672.236 580.945 675.425
C 579.408 691.939 560.116 700.475 546.101 692.87
C 543.664 691.547 541.596 689.331 539.902 687.17
C 538.252 685.065 537.038 682.626 536.337 680.044
C 535.554 677.161 535.139 674.093 535.436 671.11 Z
M 546.45 673.624
C 546.48 681.593 554.577 686.347 561.815 684.23
C 566.78 682.779 569.84 677.75 569.801 672.775
C 569.738 664.8 560.694 660.131 553.651 662.751
C 548.958 664.497 546.432 668.743 546.45 673.624 Z"
opacity="1" fill="rgb(173,176,247)" fill-rule="evenodd" />

</svg>