<svg xmlns="http://www.w3.org/2000/svg"
shape-rendering="geometricPrecision"
width="4000" height="4000" viewBox="0 0 1024 1024">
  <metadata>null</metadata>

<path d="
M 165.772 631.935
C 167.336 630.403 168.193 627.747 169.236 625.838
C 171.288 622.085 173.208 618.247 175.171 614.447
C 182.927 599.437 190.461 584.235 199.425 569.894
C 204.643 561.546 210.314 553.04 216.634 545.481
C 235.639 522.75 260.634 504.315 289.038 495.301
C 305.347 490.124 322.44 488.161 339.474 488.176
C 355.691 487.96 371.919 487.903 388.134 487.921
C 396.732 487.931 405.434 487.514 414.01 488.056
C 421.225 488.512 428.112 488.9 435.185 490.655
C 437.158 491.144 440.266 491.351 441.939 492.504
C 444.178 495.492 445.534 499.489 447.269 502.798
C 451.39 510.659 455.416 518.572 459.464 526.471
C 469.846 546.729 480.123 567.054 490.687 587.218
C 499.032 603.147 505.997 619.936 516.082 634.897
C 529.607 654.963 548.644 671.839 570.888 681.608
C 575.175 683.491 579.476 685.098 583.926 686.572
C 586.622 687.466 589.241 688.81 592.065 689.259
C 590.707 689.899 589.203 689.17 587.837 688.874
C 583.848 688.012 579.846 687.233 575.937 686.035
C 559.36 680.959 545.184 672.232 530.972 662.499
C 517.652 653.375 504.692 643.578 491.818 633.838
C 476.296 622.096 460.682 610.722 442.883 602.615
C 431.895 597.61 419.785 593.46 407.873 591.398
C 399.556 589.958 391.249 589.631 382.864 588.949
C 374.978 588.306 366.921 588.729 359.013 588.623
C 350.884 588.513 342.597 588.162 334.49 588.921
C 319.511 590.322 304.282 595.467 292.82 605.521
C 287.816 609.909 283.191 614.921 279.465 620.438
C 274.715 627.471 271.047 635.171 266.294 642.217
C 258.521 653.742 247.766 664.508 236.184 672.175
C 227.237 678.098 217.486 683.107 207.155 686.106
C 190.029 691.076 172.689 691.116 155.013 690.698
C 149.593 690.569 144.133 690.808 138.733 690.588
C 138.613 689.564 140.123 687.528 140.576 686.485
C 142.312 682.495 144.213 678.573 146.015 674.612
C 150.216 665.381 154.599 656.224 158.74 646.971
C 160.986 641.953 163.889 637.103 165.772 631.935 Z"
opacity="1" fill="rgb(200,49,143)" fill-rule="evenodd" />
<path d="
M 498.877 381.564
C 497.018 380.563 495.985 378.853 494.597 377.348
C 493.13 375.759 491.473 374.381 489.804 373.014
C 482.965 367.412 475.4 363.206 466.911 360.672
C 440.199 352.697 409.397 364.488 391.095 384.49
C 383.832 392.428 379.129 401.417 374.296 410.883
C 364.395 430.009 355.974 449.982 346.959 469.54
C 344.812 474.199 342.713 478.876 340.582 483.543
C 340.21 484.357 338.436 487.54 339.474 488.176
C 322.44 488.161 305.347 490.124 289.038 495.301
C 260.634 504.315 235.639 522.75 216.634 545.481
C 210.314 553.04 204.643 561.546 199.425 569.894
C 190.461 584.235 182.927 599.437 175.171 614.447
C 173.208 618.247 171.288 622.085 169.236 625.838
C 168.193 627.747 167.336 630.403 165.772 631.935
C 166.578 630.133 166.912 628.2 167.661 626.368
C 171.702 616.476 176.195 606.735 180.486 596.945
C 204.936 541.159 229.858 485.531 255.163 430.132
C 261.908 415.365 268.573 400.555 275.237 385.753
C 279.768 375.687 284.115 365.421 289.945 356.015
C 295.947 346.33 303.37 337.728 311.834 330.113
C 321.113 321.764 331.371 314.637 342.92 309.772
C 354.248 305 366.187 301.927 378.439 300.837
C 422.061 296.956 463.402 320.484 485.851 357.457
C 488.735 362.207 491.382 367.048 494.08 371.902
C 495.769 374.941 497.871 378.231 498.877 381.564 Z"
opacity="1" fill="rgb(204,65,159)" fill-rule="evenodd" />
<path d="
M 498.877 381.564
C 506.157 398.52 515.582 414.668 523.811 431.182
C 539.317 462.297 554.872 493.394 570.594 524.399
C 577.518 538.054 584.384 551.743 591.249 565.428
C 593.267 569.451 595.272 573.479 597.277 577.509
C 597.91 578.782 599.664 580.522 599.826 581.875
C 600.493 584.519 602.262 587.068 603.596 589.434
C 606.388 594.383 609.268 599.063 612.622 603.654
C 631.068 628.901 661.897 646.736 693.904 641.949
C 702.964 640.593 711.256 637.174 719.208 632.715
C 721.571 631.39 723.943 629.993 726.145 628.41
C 727.736 627.266 729.235 625.703 731.193 625.349
C 730.335 627.786 728.466 630.17 727.17 632.419
C 723.272 639.182 718.699 645.378 713.587 651.255
C 691.889 676.195 660.61 691.12 627.647 692.656
C 615.577 693.218 603.862 691.555 592.065 689.259
C 589.241 688.81 586.622 687.466 583.926 686.572
C 579.476 685.098 575.175 683.491 570.888 681.608
C 548.644 671.839 529.607 654.963 516.082 634.897
C 505.997 619.936 499.032 603.147 490.687 587.218
C 480.123 567.054 469.846 546.729 459.464 526.471
C 455.416 518.572 451.39 510.659 447.269 502.798
C 445.534 499.489 444.178 495.492 441.939 492.504
C 439.996 487.214 436.664 482.027 434.058 477.013
C 429.602 468.441 425.169 459.859 420.661 451.315
C 416.727 443.858 412.887 436.349 408.969 428.884
C 406.29 423.78 404.13 418.429 400.724 413.735
C 396.413 407.794 388.649 402.918 381.159 405.819
C 378.204 406.963 376.542 408.805 374.296 410.883
C 379.129 401.417 383.832 392.428 391.095 384.49
C 409.397 364.488 440.199 352.697 466.911 360.672
C 475.4 363.206 482.965 367.412 489.804 373.014
C 491.473 374.381 493.13 375.759 494.597 377.348
C 495.985 378.853 497.018 380.563 498.877 381.564 Z"
opacity="1" fill="rgb(134,64,198)" fill-rule="evenodd" />
<path d="
M 706.413 446.295
C 705.543 448.81 702.828 451.215 701.083 453.234
C 696.054 459.051 690.308 464.168 684 468.583
C 655.786 488.333 619.083 491.804 588.161 476.397
C 579.75 472.207 571.587 466.027 564.937 459.4
C 562.4 456.872 559.904 454.308 557.58 451.581
C 556.499 450.313 555.468 448.618 553.852 448.065
C 552.376 446.007 551.448 443.426 550.281 441.181
C 547.09 435.044 544.088 428.81 540.901 422.67
C 533.33 408.088 525.752 393.51 518.17 378.934
C 511.295 365.717 504.751 352.089 495.78 340.123
C 487.408 328.956 477.356 318.322 465.468 310.878
C 460.853 307.987 456.141 305.306 451.131 303.152
C 449.768 302.566 448.421 301.959 447.021 301.482
C 446.045 301.15 444.939 301.183 444.231 300.361
C 445.168 300.104 446.324 300.342 447.293 300.343
C 450.026 300.344 452.764 300.381 455.498 300.352
C 464.83 300.254 474.163 300.344 483.495 300.303
C 498.692 300.237 514.258 299.227 529.309 301.654
C 559.311 306.494 586.886 323.492 604.04 348.696
C 610.785 358.606 616.39 369.308 621.977 379.899
C 627.23 389.854 632.729 399.678 637.962 409.645
C 642.444 418.182 646.554 427.538 652.424 435.225
C 661.038 446.504 674.113 455.241 688.935 453.092
C 695.356 452.16 700.867 449.487 706.413 446.295 Z"
opacity="1" fill="rgb(80,130,212)" fill-rule="evenodd" />
<path d="
M 553.852 448.065
C 555.468 448.618 556.499 450.313 557.58 451.581
C 559.904 454.308 562.4 456.872 564.937 459.4
C 571.587 466.027 579.75 472.207 588.161 476.397
C 619.083 491.804 655.786 488.333 684 468.583
C 690.308 464.168 696.054 459.051 701.083 453.234
C 702.828 451.215 705.543 448.81 706.413 446.295
C 708.843 444.677 710.867 441.739 712.584 439.418
C 716.458 434.182 719.7 428.58 722.96 422.949
C 733.49 404.762 742.953 385.994 753.046 367.568
C 769.748 337.077 796.44 312.018 830.9 303.734
C 841.913 301.087 853.233 300.726 864.5 300.717
C 870.166 300.713 875.834 300.714 881.501 300.754
C 883.931 300.771 886.928 300.241 889.288 300.822
C 888.434 303.253 886.727 305.563 885.596 307.906
C 883.269 312.731 880.962 317.566 878.608 322.378
C 871.295 337.328 864.158 352.371 856.597 367.197
C 854.385 371.534 852.27 375.923 850.011 380.237
C 848.73 382.683 847.068 385.213 846.215 387.843
C 845.277 388.66 845.141 390.273 844.277 391.262
C 840.803 395.238 838.614 400.449 836.125 405.086
C 829.422 417.573 822.181 429.749 815.529 442.27
C 805.754 460.668 795.98 479.894 783.267 496.462
C 761.28 525.121 728.857 547.865 691.982 550.388
C 683.06 550.999 673.373 551.169 664.568 549.359
C 661.694 549.171 658.738 548.317 655.927 547.704
C 648.018 545.979 640.267 543.147 632.914 539.796
C 612.976 530.709 595.042 516.37 581.981 498.716
C 574.721 488.904 568.87 477.538 563.409 466.649
C 560.304 460.459 556.504 454.46 553.852 448.065 Z"
opacity="1" fill="rgb(77,150,234)" fill-rule="evenodd" />
<path d="
M 599.826 581.875
C 601.926 582.512 603.372 585.262 605.095 586.601
C 608.234 589.041 612.15 590.984 616.067 591.737
C 619.206 592.341 622.509 592.481 625.685 592.09
C 642.624 590.003 652.114 573.611 659.203 559.761
C 660.959 556.332 662.371 552.534 664.568 549.359
C 673.373 551.169 683.06 550.999 691.982 550.388
C 728.857 547.865 761.28 525.121 783.267 496.462
C 795.98 479.894 805.754 460.668 815.529 442.27
C 822.181 429.749 829.422 417.573 836.125 405.086
C 838.614 400.449 840.803 395.238 844.277 391.262
C 845.141 390.273 845.277 388.66 846.215 387.843
C 845.527 390.438 843.922 393.014 842.755 395.426
C 840.607 399.867 838.371 404.262 836.23 408.705
C 829.277 423.135 822.241 437.53 815.219 451.929
C 796.277 490.767 777.796 529.829 759.023 568.746
C 752.17 582.952 745.099 597.054 738.224 611.249
C 735.977 615.889 732.964 620.52 731.193 625.349
C 729.235 625.703 727.736 627.266 726.145 628.41
C 723.943 629.993 721.571 631.39 719.208 632.715
C 711.256 637.174 702.964 640.593 693.904 641.949
C 661.897 646.736 631.068 628.901 612.622 603.654
C 609.268 599.063 606.388 594.383 603.596 589.434
C 602.262 587.068 600.493 584.519 599.826 581.875 Z"
opacity="1" fill="rgb(69,67,188)" fill-rule="evenodd" />

</svg>